<svg viewBox="0 0 20 20" fill="none" xmlns="http://www.w3.org/2000/svg">
<g clip-path="url(#clip0_1603_70063)">
<path d="M10 12.3438C11.2944 12.3438 12.3438 11.2944 12.3438 10C12.3438 8.70559 11.2944 7.65625 10 7.65625C8.70559 7.65625 7.65625 8.70559 7.65625 10C7.65625 11.2944 8.70559 12.3438 10 12.3438Z" fill="currentColor"/>
<path d="M13.125 7.6562H16.6406C16.8478 7.6562 17.0466 7.57389 17.1931 7.42737C17.3396 7.28086 17.4219 7.08215 17.4219 6.87494C17.4219 6.66774 17.3396 6.46903 17.1931 6.32251C17.0466 6.176 16.8478 6.09369 16.6406 6.09369H15.011L19.1461 1.95854C19.2926 1.81204 19.3749 1.61335 19.3749 1.40617C19.3749 1.19899 19.2926 1.0003 19.1461 0.853799C18.9997 0.707301 18.801 0.625 18.5938 0.625C18.3866 0.625 18.1879 0.707301 18.0414 0.853799L13.9063 4.98895V3.3593C13.9063 3.1521 13.8239 2.95339 13.6774 2.80687C13.5309 2.66036 13.3322 2.57805 13.125 2.57805C12.9178 2.57805 12.7191 2.66036 12.5726 2.80687C12.4261 2.95339 12.3438 3.1521 12.3438 3.3593V6.87494C12.3438 7.08214 12.4261 7.28085 12.5726 7.42736C12.7191 7.57387 12.9178 7.65619 13.125 7.6562Z" fill="currentColor"/>
<path d="M4.98895 6.09369H3.3593C3.1521 6.09369 2.95339 6.176 2.80687 6.32251C2.66036 6.46903 2.57805 6.66774 2.57805 6.87494C2.57805 7.08215 2.66036 7.28086 2.80687 7.42737C2.95339 7.57389 3.1521 7.6562 3.3593 7.6562H6.87494C7.08214 7.65619 7.28085 7.57387 7.42736 7.42736C7.57387 7.28085 7.65619 7.08214 7.6562 6.87494V3.3593C7.6562 3.1521 7.57389 2.95339 7.42737 2.80687C7.28086 2.66036 7.08215 2.57805 6.87494 2.57805C6.66774 2.57805 6.46903 2.66036 6.32251 2.80687C6.176 2.95339 6.09369 3.1521 6.09369 3.3593V4.98895L1.95854 0.853799C1.81204 0.707301 1.61335 0.625 1.40617 0.625C1.19899 0.625 1.0003 0.707301 0.853799 0.853799C0.707301 1.0003 0.625 1.19899 0.625 1.40617C0.625 1.61335 0.707301 1.81204 0.853799 1.95854L4.98895 6.09369Z" fill="currentColor"/>
<path d="M15.011 13.9063H16.6406C16.8478 13.9063 17.0466 13.8239 17.1931 13.6774C17.3396 13.5309 17.4219 13.3322 17.4219 13.125C17.4219 12.9178 17.3396 12.7191 17.1931 12.5726C17.0466 12.4261 16.8478 12.3438 16.6406 12.3438H13.125C12.9178 12.3438 12.7191 12.4261 12.5726 12.5726C12.4261 12.7191 12.3438 12.9178 12.3438 13.125V16.6406C12.3438 16.8478 12.4261 17.0466 12.5726 17.1931C12.7191 17.3396 12.9178 17.4219 13.125 17.4219C13.3322 17.4219 13.5309 17.3396 13.6774 17.1931C13.8239 17.0466 13.9063 16.8478 13.9063 16.6406V15.011L18.0414 19.1461C18.1139 19.2187 18.2001 19.2762 18.2948 19.3155C18.3896 19.3547 18.4912 19.3749 18.5938 19.3749C18.6964 19.3749 18.7979 19.3547 18.8927 19.3155C18.9875 19.2762 19.0736 19.2187 19.1461 19.1461C19.2187 19.0736 19.2762 18.9875 19.3155 18.8927C19.3547 18.7979 19.3749 18.6964 19.3749 18.5938C19.3749 18.4912 19.3547 18.3896 19.3155 18.2948C19.2762 18.2001 19.2187 18.1139 19.1461 18.0414L15.011 13.9063Z" fill="currentColor"/>
<path d="M6.87494 12.3438H3.3593C3.1521 12.3438 2.95339 12.4261 2.80687 12.5726C2.66036 12.7191 2.57805 12.9178 2.57805 13.125C2.57805 13.3322 2.66036 13.5309 2.80687 13.6774C2.95339 13.8239 3.1521 13.9063 3.3593 13.9063H4.98895L0.853799 18.0414C0.707301 18.1879 0.625 18.3866 0.625 18.5938C0.625 18.801 0.707301 18.9997 0.853799 19.1461C1.0003 19.2926 1.19899 19.3749 1.40617 19.3749C1.61335 19.3749 1.81204 19.2926 1.95854 19.1461L6.09369 15.011V16.6406C6.09369 16.8478 6.176 17.0466 6.32251 17.1931C6.46903 17.3396 6.66774 17.4219 6.87494 17.4219C7.08215 17.4219 7.28086 17.3396 7.42737 17.1931C7.57389 17.0466 7.6562 16.8478 7.6562 16.6406V13.125C7.65619 12.9178 7.57387 12.7191 7.42736 12.5726C7.28085 12.4261 7.08214 12.3438 6.87494 12.3438Z" fill="currentColor"/>
</g>
<defs>
<clipPath id="clip0_1603_70063">
<rect width="20" height="20" fill="currentColor"/>
</clipPath>
</defs>
</svg>
