<svg viewBox="0 0 20 20" fill="none" xmlns="http://www.w3.org/2000/svg">
<g clip-path="url(#clip0_1603_70062)">
<path d="M18.9844 11.7297H1.01562C0.912025 11.7297 0.812668 11.7709 0.739411 11.8441C0.666155 11.9174 0.625 12.0168 0.625 12.1204C0.625 13.4672 1.16002 14.7588 2.11235 15.7111C3.06468 16.6635 4.35632 17.1985 5.70312 17.1985H14.2969C15.6437 17.1985 16.9353 16.6635 17.8877 15.7111C18.84 14.7588 19.375 13.4672 19.375 12.1204C19.375 12.0168 19.3338 11.9174 19.2606 11.8441C19.1873 11.7709 19.088 11.7297 18.9844 11.7297Z" fill="currentColor"/>
<path d="M8.7842 7.52002L7.81252 7.25967C7.31217 7.1256 6.77906 7.19579 6.33046 7.45479C5.88186 7.71379 5.55452 8.14038 5.42044 8.64073L5.35156 8.89784L6.32321 9.15819C6.57096 9.22458 6.82936 9.24152 7.08366 9.20804C7.33795 9.17457 7.58316 9.09133 7.80529 8.96308C8.02741 8.83484 8.2221 8.6641 8.37824 8.46061C8.53438 8.25713 8.64891 8.02488 8.71529 7.77713L8.7842 7.52002Z" fill="currentColor"/>
<path d="M8.56738 9.75941L9.53906 10.0198C10.0394 10.1538 10.5725 10.0836 11.0211 9.82465C11.4697 9.56565 11.7971 9.13905 11.9311 8.63871L12 8.3816L11.0284 8.12124C10.7806 8.05486 10.5222 8.03792 10.2679 8.0714C10.0136 8.10487 9.76842 8.18811 9.54629 8.31635C9.32416 8.4446 9.12947 8.61534 8.97333 8.81882C8.81719 9.02231 8.70266 9.25456 8.63627 9.5023L8.56738 9.75941Z" fill="currentColor"/>
<path d="M11.7822 10.621L12.7539 10.8813C13.2542 11.0154 13.7873 10.9452 14.2359 10.6862C14.6845 10.4272 15.0119 10.0006 15.146 9.50027L15.2149 9.24316L14.2432 8.98282C13.7428 8.84875 13.2097 8.91893 12.7611 9.17793C12.3125 9.43693 11.9852 9.86353 11.8511 10.3639L11.7822 10.621Z" fill="currentColor"/>
<path d="M8.09996 6.18774L9.07164 6.44809L9.14052 6.191C9.27459 5.69065 9.2044 5.15754 8.9454 4.70894C8.6864 4.26034 8.2598 3.933 7.75945 3.79893L6.7878 3.53857L6.7189 3.79566C6.58483 4.29601 6.65502 4.82912 6.91402 5.27773C7.17302 5.72633 7.59961 6.05367 8.09996 6.18774Z" fill="currentColor"/>
<path d="M11.3138 7.04935L12.2855 7.3097L12.3544 7.05261C12.4208 6.80486 12.4377 6.54646 12.4042 6.29217C12.3708 6.03787 12.2875 5.79266 12.1593 5.57054C12.031 5.34841 11.8603 5.15372 11.6568 4.99758C11.4533 4.84144 11.2211 4.72691 10.9733 4.66052L10.0016 4.40015L9.93276 4.65726C9.86638 4.90501 9.84944 5.1634 9.88292 5.4177C9.9164 5.67199 9.99963 5.9172 10.1279 6.13933C10.2561 6.36146 10.4269 6.55615 10.6303 6.71229C10.8338 6.86843 11.0661 6.98296 11.3138 7.04935Z" fill="currentColor"/>
<path d="M14.5316 7.91115L15.5033 8.1715L15.5721 7.91439C15.6385 7.66665 15.6555 7.40825 15.622 7.15396C15.5885 6.89967 15.5053 6.65446 15.377 6.43234C15.2488 6.21021 15.0781 6.01552 14.8746 5.85939C14.6711 5.70325 14.4388 5.58872 14.1911 5.52234L13.2194 5.26196L13.1505 5.51907C13.0165 6.01942 13.0867 6.55253 13.3457 7.00113C13.6047 7.44974 14.0312 7.77708 14.5316 7.91115Z" fill="currentColor"/>
<path d="M18.5742 9.56884C18.5931 9.49846 18.5979 9.42505 18.5884 9.35282C18.5789 9.28058 18.5552 9.21092 18.5188 9.14782C18.4824 9.08472 18.4339 9.02941 18.3761 8.98506C18.3183 8.9407 18.2523 8.90817 18.1819 8.88932L16.2169 8.36279L15.9297 9.43463L17.8947 9.96115C17.9651 9.98001 18.0385 9.98483 18.1107 9.97532C18.183 9.96581 18.2526 9.94216 18.3157 9.90573C18.3788 9.8693 18.4341 9.8208 18.4785 9.76299C18.5228 9.70519 18.5554 9.63921 18.5742 9.56884Z" fill="currentColor"/>
<path d="M2.96016 7.108C2.81812 7.07022 2.6669 7.09034 2.53968 7.16394C2.41246 7.23754 2.31964 7.35861 2.2816 7.50058C2.24356 7.64255 2.26341 7.79381 2.33678 7.92116C2.41015 8.04851 2.53106 8.14155 2.67296 8.17984L4.10209 8.56276C4.17246 8.58162 4.24587 8.58643 4.3181 8.57693C4.39034 8.56742 4.46 8.54377 4.5231 8.50734C4.5862 8.47091 4.6415 8.42241 4.68586 8.36461C4.73022 8.30681 4.76275 8.24083 4.78161 8.17046C4.80047 8.10008 4.80528 8.02668 4.79577 7.95444C4.78627 7.8822 4.76262 7.81254 4.72619 7.74944C4.68976 7.68634 4.64126 7.63104 4.58346 7.58668C4.52566 7.54233 4.45968 7.50979 4.3893 7.49093L2.96016 7.108Z" fill="currentColor"/>
<path d="M3.82138 3.8925L5.25051 4.27542C5.39254 4.31321 5.54377 4.29309 5.67099 4.21949C5.79821 4.14589 5.89102 4.02481 5.92906 3.88285C5.9671 3.74088 5.94726 3.58962 5.87389 3.46227C5.80051 3.33492 5.67961 3.24188 5.53771 3.20359L4.10858 2.82066C3.96645 2.78258 3.815 2.80252 3.68757 2.87609C3.56014 2.94966 3.46715 3.07085 3.42906 3.21298C3.39098 3.35511 3.41092 3.50656 3.48449 3.63399C3.55806 3.76142 3.67925 3.85441 3.82138 3.8925Z" fill="currentColor"/>
<path d="M1.81846 5.65323L5.74854 6.70628C5.81897 6.72528 5.89245 6.73022 5.96478 6.72079C6.03712 6.71137 6.10688 6.68777 6.17009 6.65136C6.23329 6.61494 6.28869 6.56642 6.33313 6.50857C6.37756 6.45072 6.41015 6.38468 6.42903 6.31422C6.44791 6.24376 6.45271 6.17027 6.44315 6.09795C6.4336 6.02563 6.40988 5.95591 6.37335 5.89277C6.33682 5.82963 6.2882 5.77432 6.23027 5.72999C6.17234 5.68566 6.10624 5.65319 6.03574 5.63444L2.10566 4.58139C1.96363 4.54361 1.8124 4.56373 1.68519 4.63733C1.55797 4.71093 1.46515 4.832 1.42711 4.97397C1.38907 5.11594 1.40891 5.2672 1.48229 5.39455C1.55566 5.5219 1.67657 5.61493 1.81846 5.65323Z" fill="currentColor"/>
</g>
<defs>
<clipPath id="clip0_1603_70062">
<rect width="20" height="20" fill="currentColor"/>
</clipPath>
</defs>
</svg>
