<svg viewBox="0 0 20 20" fill="none" xmlns="http://www.w3.org/2000/svg">
<path d="M11.1543 1.80178C11.1543 1.13494 10.6444 0.625 9.97756 0.625C9.31072 0.625 8.80078 1.13494 8.80078 1.80178V2.97856H11.1543V1.80178Z" fill="currentColor"/>
<path d="M8.80088 10.8238H11.1544V10.0393H13.1157C14.8417 10.0393 16.2538 8.62713 16.2538 6.90118C16.2538 5.17524 14.8417 3.76311 13.1157 3.76311H7.4672C7.19262 3.52775 6.80036 3.37085 6.44733 3.37085H4.48603C3.62306 3.37085 2.91699 4.07692 2.91699 4.93989C2.91699 5.80286 3.62306 6.50893 4.48603 6.50893H6.44733C6.83959 6.50893 7.19262 6.35202 7.4672 6.11667H13.1157C13.5472 6.11667 13.9003 6.4697 13.9003 6.90118C13.9003 7.33267 13.5472 7.6857 13.1157 7.6857H11.1544V6.90118H8.80088V7.6857H7.62411C5.89816 7.6857 4.48603 9.09784 4.48603 10.8238C4.48603 12.5497 5.89816 13.9619 7.62411 13.9619H11.5467C11.9782 13.9619 12.3312 14.3149 12.3312 14.7464C12.3312 15.1779 11.9782 15.5309 11.5467 15.5309H11.1544V14.7464H8.80088V15.5309H8.01636C7.34952 15.5309 6.83959 16.0408 6.83959 16.7077C6.83959 17.3745 7.34952 17.8844 8.01636 17.8844H8.80088V18.2767C8.80088 18.3944 8.80088 18.5513 8.87934 18.669C8.87934 18.7082 8.91856 18.7866 8.95779 18.8259C8.95779 18.8259 8.95779 18.8651 8.99701 18.9043C8.99701 18.9043 8.99701 18.9435 9.03624 18.9828C9.15392 19.1789 9.35005 19.2966 9.5854 19.375C9.5854 19.375 9.62463 19.375 9.66385 19.375C9.66385 19.375 9.70308 19.375 9.74231 19.375C9.74231 19.375 9.78153 19.375 9.82076 19.375C9.93844 19.375 10.0953 19.375 10.213 19.375C10.213 19.375 10.2522 19.375 10.2915 19.375C10.5661 19.2966 10.8014 19.1397 10.9583 18.9043C10.9583 18.9043 10.9583 18.9043 10.9975 18.8259C10.9975 18.8259 10.9975 18.7866 11.0368 18.7474C11.0368 18.7082 11.076 18.6297 11.1152 18.5905C11.1544 18.4728 11.1937 18.3159 11.1937 18.1983V17.806H11.5859C13.3119 17.806 14.724 16.3939 14.724 14.6679C14.724 12.942 13.3119 11.5298 11.5859 11.5298H7.66333C7.23185 11.5298 6.87881 11.1768 6.87881 10.7453C6.87881 10.3138 7.23185 9.96081 7.66333 9.96081H8.84011V10.7453L8.80088 10.8238ZM4.48603 4.93989C4.25067 4.93989 4.09377 4.78298 4.09377 4.54763C4.09377 4.31227 4.25067 4.15537 4.48603 4.15537C4.72139 4.15537 4.87829 4.31227 4.87829 4.54763C4.87829 4.78298 4.72139 4.93989 4.48603 4.93989Z" fill="currentColor"/>
</svg>
