<svg viewBox="0 0 20 20" fill="none" xmlns="http://www.w3.org/2000/svg">
<path d="M3.88375 15.3721L1.21764 17.9583C1.14819 18.0254 1.09322 18.105 1.05588 18.1925C1.01854 18.28 0.99955 18.3737 1.00001 18.4683C1.00047 18.5629 1.02036 18.6564 1.05855 18.7436C1.09674 18.8308 1.15247 18.9099 1.22257 18.9764C1.29266 19.0429 1.37573 19.0955 1.46704 19.1312C1.55834 19.1668 1.65608 19.1849 1.75466 19.1843C1.85324 19.1837 1.95073 19.1644 2.04155 19.1276C2.13237 19.0908 2.21474 19.0372 2.28394 18.9699L4.95005 16.3837C5.01949 16.3166 5.07446 16.237 5.11181 16.1495C5.14915 16.062 5.16813 15.9683 5.16768 15.8737C5.16722 15.7791 5.14733 15.6856 5.10914 15.5984C5.07095 15.5112 5.01521 15.4321 4.94512 15.3656C4.87503 15.2991 4.79195 15.2465 4.70065 15.2108C4.60935 15.1752 4.51161 15.1571 4.41302 15.1577C4.31444 15.1583 4.21695 15.1776 4.12613 15.2144C4.03531 15.2512 3.95295 15.3048 3.88375 15.3721Z" fill="currentColor"/>
<path d="M15.5536 5.91461C15.7511 5.91484 15.9406 5.84015 16.0809 5.70684L18.777 3.1495C18.9185 3.01535 18.9986 2.83279 18.9997 2.64199C19.0008 2.45119 18.9229 2.26777 18.7831 2.13208C18.6432 1.99639 18.4529 1.91956 18.254 1.91847C18.0551 1.91738 17.8639 1.99214 17.7224 2.12629L15.0263 4.68362C14.9206 4.78392 14.8483 4.91208 14.8187 5.05185C14.7891 5.19161 14.8035 5.33667 14.86 5.46859C14.9165 5.60051 15.0126 5.71334 15.1361 5.79275C15.2596 5.87217 15.4049 5.91458 15.5536 5.91461Z" fill="currentColor"/>
<path d="M16.111 15.3751C15.9708 15.2402 15.7806 15.1641 15.5821 15.1636C15.3835 15.163 15.1929 15.238 15.0519 15.3722C14.9109 15.5063 14.8312 15.6885 14.8301 15.879C14.829 16.0694 14.9067 16.2525 15.0462 16.3881L17.7159 18.9707C17.856 19.1062 18.0464 19.1827 18.2453 19.1835C18.4441 19.1843 18.6352 19.1093 18.7764 18.9749C18.9176 18.8406 18.9974 18.658 18.9982 18.4672C18.999 18.2764 18.9208 18.0932 18.7808 17.9577L16.111 15.3751Z" fill="currentColor"/>
<path d="M3.91589 5.70976C4.0571 5.8441 4.24815 5.91912 4.44702 5.91833C4.64589 5.91754 4.83629 5.841 4.97633 5.70555C5.11637 5.57009 5.19458 5.38682 5.19376 5.19605C5.19293 5.00528 5.11314 4.82264 4.97193 4.6883L2.27983 2.12728C2.20991 2.06076 2.12702 2.00811 2.03589 1.97232C1.94476 1.93653 1.84717 1.91832 1.7487 1.91871C1.65023 1.9191 1.5528 1.93809 1.46198 1.9746C1.37116 2.01111 1.28873 2.06442 1.21939 2.13149C1.15005 2.19856 1.09516 2.27808 1.05785 2.3655C1.02054 2.45292 1.00155 2.54653 1.00196 2.64099C1.00237 2.73545 1.02217 2.82891 1.06023 2.91602C1.09829 3.00314 1.15386 3.08222 1.22378 3.14874L3.91589 5.70976Z" fill="currentColor"/>
<path d="M10.0005 5.51538C7.22159 5.51538 5.12598 7.3709 5.12598 9.83164C5.12598 10.0224 5.20499 10.2054 5.34562 10.3403C5.48626 10.4752 5.67701 10.551 5.8759 10.551C6.07479 10.551 6.26554 10.4752 6.40618 10.3403C6.54681 10.2054 6.62582 10.0224 6.62582 9.83164C6.61595 9.33349 6.75108 8.84257 7.01603 8.41403C7.28098 7.98549 7.66525 7.63631 8.12567 7.40572V18.4642C8.12567 18.655 8.20468 18.8379 8.34532 18.9728C8.48596 19.1078 8.6767 19.1835 8.8756 19.1835C9.07449 19.1835 9.26523 19.1078 9.40587 18.9728C9.54651 18.8379 9.62552 18.655 9.62552 18.4642V13.0688H10.3754V18.4642C10.3754 18.655 10.4545 18.8379 10.5951 18.9728C10.7357 19.1078 10.9265 19.1835 11.1254 19.1835C11.3243 19.1835 11.515 19.1078 11.6556 18.9728C11.7963 18.8379 11.8753 18.655 11.8753 18.4642V7.40568C12.3357 7.63627 12.72 7.98546 12.9849 8.41401C13.2499 8.84256 13.385 9.33349 13.3751 9.83164C13.3751 10.0224 13.4541 10.2054 13.5948 10.3403C13.7354 10.4752 13.9262 10.551 14.1251 10.551C14.324 10.551 14.5147 10.4752 14.6553 10.3403C14.796 10.2054 14.875 10.0224 14.875 9.83164C14.875 7.3709 12.7794 5.51538 10.0005 5.51538Z" fill="currentColor"/>
<path d="M10.0008 4.79597C10.8292 4.79597 11.5007 4.15181 11.5007 3.35721C11.5007 2.56261 10.8292 1.91846 10.0008 1.91846C9.17248 1.91846 8.50098 2.56261 8.50098 3.35721C8.50098 4.15181 9.17248 4.79597 10.0008 4.79597Z" fill="currentColor"/>
</svg>
