<svg viewBox="0 0 16 16" fill="none" xmlns="http://www.w3.org/2000/svg">
<path d="M7.99844 2.99935V13.3912M6.86315 13.5479L7.69844 13.7502C7.80931 13.777 7.86475 13.7905 7.92087 13.7959C7.97246 13.801 8.02442 13.801 8.07601 13.7959C8.13212 13.7905 8.18756 13.777 8.29844 13.7502L9.13372 13.5479C9.41188 13.4805 9.55096 13.4468 9.68938 13.4184C10.751 13.2006 11.8459 13.2006 12.9075 13.4184C13.0459 13.4468 13.185 13.4805 13.4632 13.5479C13.5959 13.58 13.6622 13.5961 13.7158 13.6016C14.1457 13.6463 14.5334 13.3416 14.5912 12.9136C14.5984 12.8603 14.5984 12.7921 14.5984 12.6556V3.59872C14.5984 3.40638 14.5984 3.31021 14.5801 3.22609C14.5279 2.9867 14.3687 2.78445 14.1481 2.67735C14.0707 2.63971 13.9771 2.61706 13.79 2.57174C13.187 2.42566 12.8854 2.35261 12.583 2.30345C11.7322 2.16516 10.8647 2.16516 10.0139 2.30345C9.71144 2.35261 9.40991 2.42566 8.80683 2.57174L8.29844 2.69489C8.18756 2.72175 8.13213 2.73518 8.07601 2.74064C8.02442 2.74566 7.97246 2.74566 7.92086 2.74064C7.86475 2.73517 7.80931 2.72175 7.69844 2.69489L7.19005 2.57173C6.587 2.42565 6.28548 2.35261 5.98304 2.30344C5.13223 2.16513 4.26464 2.16513 3.41383 2.30343C3.11139 2.35259 2.80987 2.42563 2.20682 2.57171C2.01976 2.61702 1.92623 2.63968 1.84874 2.67731C1.6282 2.78441 1.46899 2.98667 1.41678 3.22607C1.39844 3.31018 1.39844 3.40635 1.39844 3.59867V12.6556C1.39844 12.7921 1.39844 12.8603 1.40564 12.9136C1.46352 13.3416 1.85119 13.6463 2.28112 13.6016C2.33463 13.5961 2.40099 13.58 2.53372 13.5479C2.81188 13.4805 2.95096 13.4468 3.08938 13.4184C4.15101 13.2006 5.24587 13.2006 6.3075 13.4184C6.44591 13.4468 6.58499 13.4805 6.86315 13.5479Z" stroke="currentColor" stroke-width="1.2" stroke-linecap="round" stroke-linejoin="round"/>
</svg>
