<svg viewBox="0 0 20 20" fill="none" xmlns="http://www.w3.org/2000/svg">
<path d="M17.8385 16.927H14.0104V8.52485C14.0184 8.13923 14.1775 7.77215 14.4533 7.50257C14.7292 7.23298 15.0998 7.08241 15.4855 7.08325C15.8677 7.08367 16.2341 7.23569 16.5044 7.50595C16.7746 7.77621 16.9267 8.14264 16.9271 8.52485C16.9271 8.53059 16.9286 8.53589 16.9288 8.54159H16.9271V8.79253C16.7093 8.89538 16.5252 9.05789 16.3962 9.26119C16.2671 9.4645 16.1984 9.70025 16.1979 9.94106C16.1979 10.579 17.2433 11.9225 17.4417 12.1717C17.4455 12.1766 17.4504 12.1806 17.456 12.1833C17.4616 12.186 17.4677 12.1874 17.474 12.1874C17.4802 12.1874 17.4863 12.186 17.4919 12.1833C17.4975 12.1806 17.5024 12.1766 17.5062 12.1717C17.7046 11.9225 18.75 10.579 18.75 9.94106C18.7496 9.70025 18.6808 9.4645 18.5518 9.26119C18.4227 9.05789 18.2386 8.89538 18.0208 8.79253V8.54159H18.0191C18.0193 8.53589 18.0208 8.53059 18.0208 8.52485C18.0201 7.85266 17.7527 7.20821 17.2774 6.7329C16.8021 6.25759 16.1577 5.99024 15.4855 5.9895C14.8098 5.98896 14.1612 6.25485 13.6803 6.72948C13.1994 7.20412 12.925 7.84922 12.9167 8.52485V10.3645H12.0052C11.9443 10.3644 11.8834 10.3681 11.8229 10.3754C11.3578 10.4208 10.9228 10.6263 10.5923 10.9568C10.2618 11.2873 10.0563 11.7223 10.0109 12.1874C10.0035 12.2479 9.9999 12.3088 10 12.3697V12.8029C9.78225 12.9058 9.59816 13.0683 9.46908 13.2716C9.34001 13.4749 9.27127 13.7107 9.27083 13.9515C9.27083 14.5894 10.3162 15.9329 10.5146 16.1821C10.5184 16.187 10.5233 16.191 10.5289 16.1937C10.5345 16.1964 10.5407 16.1978 10.5469 16.1978C10.5531 16.1978 10.5592 16.1964 10.5648 16.1937C10.5704 16.191 10.5753 16.187 10.5792 16.1821C10.7775 15.9329 11.8229 14.5894 11.8229 13.9515C11.8225 13.7107 11.7537 13.4749 11.6247 13.2716C11.4956 13.0683 11.3115 12.9058 11.0938 12.8029V12.3697C11.0938 12.128 11.1899 11.8962 11.3608 11.7253C11.5317 11.5544 11.7635 11.4583 12.0052 11.4583H12.9167V16.927H2.16146C1.91972 16.927 1.68789 17.023 1.51696 17.194C1.34603 17.3649 1.25 17.5967 1.25 17.8385C1.25 18.0802 1.34603 18.312 1.51696 18.483C1.68789 18.6539 1.91972 18.7499 2.16146 18.7499H17.8385C18.0803 18.7499 18.3121 18.6539 18.483 18.483C18.654 18.312 18.75 18.0802 18.75 17.8385C18.75 17.5967 18.654 17.3649 18.483 17.194C18.3121 17.023 18.0803 16.927 17.8385 16.927Z" fill="currentColor"/>
<path d="M5.80762 3.4375C5.95266 3.43749 6.09175 3.37987 6.19431 3.27732C6.29686 3.17476 6.35448 3.03566 6.35449 2.89062V1.79688C6.35449 1.65183 6.29688 1.51273 6.19432 1.41018C6.09176 1.30762 5.95266 1.25 5.80762 1.25C5.66258 1.25 5.52348 1.30762 5.42092 1.41018C5.31836 1.51273 5.26074 1.65183 5.26074 1.79688V2.89062C5.26075 3.03566 5.31837 3.17476 5.42093 3.27732C5.52348 3.37987 5.66258 3.43749 5.80762 3.4375Z" fill="currentColor"/>
<path d="M5.26074 8.72388V9.81763C5.26074 9.96267 5.31836 10.1018 5.42092 10.2043C5.52348 10.3069 5.66258 10.3645 5.80762 10.3645C5.95266 10.3645 6.09176 10.3069 6.19432 10.2043C6.29688 10.1018 6.35449 9.96267 6.35449 9.81763V8.72388C6.35449 8.57884 6.29688 8.43974 6.19432 8.33718C6.09176 8.23462 5.95266 8.177 5.80762 8.177C5.66258 8.177 5.52348 8.23462 5.42092 8.33718C5.31836 8.43974 5.26074 8.57884 5.26074 8.72388Z" fill="currentColor"/>
<path d="M8.25585 4.13172L9.02923 3.35831C9.08053 3.30765 9.1213 3.24734 9.1492 3.18085C9.1771 3.11437 9.19157 3.04302 9.1918 2.97092C9.19202 2.89882 9.17798 2.82739 9.15049 2.76074C9.123 2.69408 9.08261 2.63352 9.03162 2.58254C8.98064 2.53156 8.92008 2.49116 8.85343 2.46367C8.78677 2.43618 8.71534 2.42214 8.64324 2.42237C8.57114 2.42259 8.49979 2.43707 8.43331 2.46497C8.36683 2.49286 8.30651 2.53364 8.25585 2.58493L7.48244 3.35831C7.43166 3.4091 7.39138 3.46939 7.36389 3.53574C7.33641 3.60209 7.32227 3.6732 7.32227 3.74502C7.32227 3.89006 7.37988 4.02916 7.48244 4.13172C7.585 4.23428 7.7241 4.2919 7.86915 4.2919C8.01419 4.2919 8.15329 4.23428 8.25585 4.13172Z" fill="currentColor"/>
<path d="M3.35599 7.48293L2.5826 8.25634C2.48109 8.35911 2.42436 8.49787 2.42481 8.64233C2.42525 8.78678 2.48283 8.9252 2.58498 9.02734C2.68713 9.12949 2.82554 9.18707 2.96999 9.18752C3.11445 9.18796 3.25321 9.13123 3.35599 9.02972L4.12939 8.25634C4.18017 8.20555 4.22046 8.14527 4.24794 8.07892C4.27542 8.01256 4.28957 7.94145 4.28957 7.86963C4.28957 7.79782 4.27542 7.7267 4.24794 7.66035C4.22046 7.594 4.18017 7.53371 4.12939 7.48293C4.07861 7.43215 4.01832 7.39187 3.95197 7.36438C3.88562 7.3369 3.81451 7.32275 3.74269 7.32275C3.67087 7.32275 3.59976 7.3369 3.53341 7.36438C3.46706 7.39187 3.40677 7.43215 3.35599 7.48293Z" fill="currentColor"/>
<path d="M8.17676 5.80737C8.17677 5.95241 8.23439 6.09151 8.33694 6.19406C8.4395 6.29662 8.57859 6.35424 8.72363 6.35425H9.81738C9.96242 6.35425 10.1015 6.29663 10.2041 6.19407C10.3066 6.09151 10.3643 5.95241 10.3643 5.80737C10.3643 5.66233 10.3066 5.52323 10.2041 5.42067C10.1015 5.31811 9.96242 5.2605 9.81738 5.2605H8.72363C8.57859 5.26051 8.4395 5.31813 8.33694 5.42068C8.23439 5.52324 8.17677 5.66234 8.17676 5.80737Z" fill="currentColor"/>
<path d="M1.79688 6.35425H2.89062C3.03567 6.35425 3.17477 6.29663 3.27732 6.19407C3.37988 6.09151 3.4375 5.95241 3.4375 5.80737C3.4375 5.66233 3.37988 5.52323 3.27732 5.42067C3.17477 5.31811 3.03567 5.2605 2.89062 5.2605H1.79688C1.65183 5.2605 1.51273 5.31811 1.41018 5.42067C1.30762 5.52323 1.25 5.66233 1.25 5.80737C1.25 5.95241 1.30762 6.09151 1.41018 6.19407C1.51273 6.29663 1.65183 6.35425 1.79688 6.35425Z" fill="currentColor"/>
<path d="M7.48243 7.48292C7.37988 7.58548 7.32227 7.72458 7.32227 7.86962C7.32227 8.01466 7.37988 8.15376 7.48243 8.25633L8.25584 9.02971C8.35861 9.13122 8.49738 9.18795 8.64183 9.18751C8.78629 9.18706 8.9247 9.12948 9.02684 9.02733C9.12899 8.92519 9.18657 8.78678 9.18702 8.64232C9.18746 8.49786 9.13074 8.3591 9.02922 8.25633L8.25584 7.48292C8.15327 7.38037 8.01418 7.32275 7.86914 7.32275C7.7241 7.32275 7.585 7.38037 7.48243 7.48292Z" fill="currentColor"/>
<path d="M3.35599 4.13159C3.45855 4.23415 3.59765 4.29177 3.74269 4.29177C3.88773 4.29177 4.02683 4.23415 4.12939 4.13159C4.23195 4.02903 4.28957 3.88993 4.28957 3.74489C4.28957 3.59984 4.23195 3.46074 4.12939 3.35818L3.35599 2.5848C3.25321 2.48329 3.11445 2.42656 2.96999 2.427C2.82554 2.42745 2.68713 2.48503 2.58498 2.58718C2.48283 2.68932 2.42525 2.82774 2.42481 2.97219C2.42436 3.11665 2.48109 3.25541 2.5826 3.35818L3.35599 4.13159Z" fill="currentColor"/>
<path d="M5.80762 7.448C6.71371 7.448 7.44824 6.71347 7.44824 5.80737C7.44824 4.90128 6.71371 4.16675 5.80762 4.16675C4.90153 4.16675 4.16699 4.90128 4.16699 5.80737C4.16699 6.71347 4.90153 7.448 5.80762 7.448Z" fill="currentColor"/>
</svg>
