<svg viewBox="0 0 20 20" fill="none" xmlns="http://www.w3.org/2000/svg">
<path d="M9.60032 0.625C6.13759 0.625 3.33301 3.60197 3.33301 7.26835C3.33301 10.4255 7.96693 17.3235 9.26737 19.1958C9.30372 19.2509 9.35316 19.2961 9.41127 19.3274C9.46937 19.3586 9.53433 19.375 9.60032 19.375C9.6663 19.375 9.73126 19.3586 9.78937 19.3274C9.84748 19.2961 9.89692 19.2509 9.93327 19.1958C11.2337 17.3235 15.8676 10.4255 15.8676 7.26835C15.8676 3.60197 13.063 0.625 9.60032 0.625ZM9.60032 9.97504C8.98054 9.97504 8.37468 9.79126 7.85935 9.44693C7.34403 9.1026 6.94238 8.61319 6.7052 8.04059C6.46802 7.46798 6.40596 6.83791 6.52687 6.23004C6.64779 5.62217 6.94624 5.06381 7.38449 4.62556C7.82274 4.18731 8.3811 3.88886 8.98897 3.76795C9.59684 3.64703 10.2269 3.70909 10.7995 3.94627C11.3721 4.18345 11.8615 4.5851 12.2059 5.10042C12.5502 5.61575 12.734 6.22161 12.734 6.84139C12.7341 7.25293 12.6531 7.66047 12.4957 8.04071C12.3382 8.42095 12.1074 8.76645 11.8164 9.05746C11.5254 9.34846 11.1799 9.57928 10.7996 9.73673C10.4194 9.89417 10.0119 9.97515 9.60032 9.97504Z" fill="currentColor"/>
</svg>
